# xmcd
#
# Track frame offsets:
#  150
#  34465
#  50300
#  75005
#  96582
#  114652
#  145195
#  164302
#  180052
#  203072
#  217692
#  245190
#  261535
#
# Disc length: 3697 seconds
#
# Revision: 1
# Processed by: cddbd v1.5.1PL2 Copyright (c) Steve Scherf et al.
# Submitted via: Collectorz.com_Music_Collector 6.10
#
DISCID=af0e6f0d
DTITLE=Scott Finch and Blues O'Delics - Live Groove! [CD1)
DYEAR=2001
DGENRE=Blues Rock
TTITLE0=Finch, Scott - Scott's Boogie
TTITLE1=Finch, Scott - Steil, Joe - Slavik, Gregg - Haze Of Mother Nature
TTITLE2=Finch, Scott - Steil, Joe - Slavik, Gregg - Velvet Groove
TTITLE3=Finch, Scott - Changer [unrealised]
TTITLE4=Finch, Scott - Close To You [unrealised]
TTITLE5=Mayfield, Percy - Memory Pain
TTITLE6=Alt, Peter - Brooks, Liz - Finch, Scott - Mass Hate
TTITLE7=Finch, Scott - Dragnet
TTITLE8=Finch, Scott - I Am Still [unrealised]
TTITLE9=Hendrix, Jimi - Fire
TTITLE10=Dylan, Bob - All Along The Watchtower
TTITLE11=Hendrix, Jimi - Wind Cries Mary
TTITLE12=Hendrix, Jimi - Spanish Castle Magic
EXTD=
EXTT0=
EXTT1=
EXTT2=
EXTT3=
EXTT4=
EXTT5=
EXTT6=
EXTT7=
EXTT8=
EXTT9=
EXTT10=
EXTT11=
EXTT12=
PLAYORDER=
